<svg width="68" height="24" viewBox="0 0 68 24" fill="none" xmlns="http://www.w3.org/2000/svg">
<path d="M6.66667 14.4C6.28889 14.4 5.972 14.2848 5.716 14.0544C5.46089 13.8248 5.33333 13.54 5.33333 13.2C5.33333 12.86 5.46089 12.5748 5.716 12.3444C5.972 12.1148 6.28889 12 6.66667 12C7.04444 12 7.36133 12.1148 7.61733 12.3444C7.87245 12.5748 8 12.86 8 13.2C8 13.54 7.87245 13.8248 7.61733 14.0544C7.36133 14.2848 7.04444 14.4 6.66667 14.4ZM12 14.4C11.6222 14.4 11.3058 14.2848 11.0507 14.0544C10.7947 13.8248 10.6667 13.54 10.6667 13.2C10.6667 12.86 10.7947 12.5748 11.0507 12.3444C11.3058 12.1148 11.6222 12 12 12C12.3778 12 12.6947 12.1148 12.9507 12.3444C13.2058 12.5748 13.3333 12.86 13.3333 13.2C13.3333 13.54 13.2058 13.8248 12.9507 14.0544C12.6947 14.2848 12.3778 14.4 12 14.4ZM17.3333 14.4C16.9556 14.4 16.6391 14.2848 16.384 14.0544C16.128 13.8248 16 13.54 16 13.2C16 12.86 16.128 12.5748 16.384 12.3444C16.6391 12.1148 16.9556 12 17.3333 12C17.7111 12 18.0276 12.1148 18.2827 12.3444C18.5387 12.5748 18.6667 12.86 18.6667 13.2C18.6667 13.54 18.5387 13.8248 18.2827 14.0544C18.0276 14.2848 17.7111 14.4 17.3333 14.4ZM0 24V2.4H4V0H6.66667V2.4H17.3333V0H20V2.4H24V24H0ZM2.66667 21.6H21.3333V9.6H2.66667V21.6ZM2.66667 7.2H21.3333V4.8H2.66667V7.2Z" fill="black" fill-opacity="0.6"/>
<path d="M37.5896 8.77716C38.6536 8.77716 39.573 8.97782 40.3476 9.37916C41.1316 9.77116 41.729 10.3358 42.1396 11.0732C42.5596 11.8105 42.7696 12.6785 42.7696 13.6772C42.7696 14.6758 42.5596 15.5438 42.1396 16.2812C41.729 17.0092 41.1316 17.5692 40.3476 17.9612C39.573 18.3438 38.6536 18.5352 37.5896 18.5352H34.5516V8.77716H37.5896ZM37.5896 17.4852C38.8496 17.4852 39.811 17.1538 40.4736 16.4912C41.1363 15.8192 41.4676 14.8812 41.4676 13.6772C41.4676 12.4638 41.1316 11.5165 40.4596 10.8352C39.797 10.1538 38.8403 9.81316 37.5896 9.81316H35.8256V17.4852H37.5896ZM43.9741 14.6712C43.9741 13.8872 44.1327 13.2012 44.4501 12.6132C44.7674 12.0158 45.2014 11.5538 45.7521 11.2272C46.3121 10.9005 46.9327 10.7372 47.6141 10.7372C48.2861 10.7372 48.8694 10.8818 49.3641 11.1712C49.8587 11.4605 50.2274 11.8245 50.4701 12.2632V10.8632H51.7581V18.5352H50.4701V17.1072C50.2181 17.5552 49.8401 17.9285 49.3361 18.2272C48.8414 18.5165 48.2627 18.6612 47.6001 18.6612C46.9187 18.6612 46.3027 18.4932 45.7521 18.1572C45.2014 17.8212 44.7674 17.3498 44.4501 16.7432C44.1327 16.1365 43.9741 15.4458 43.9741 14.6712ZM50.4701 14.6852C50.4701 14.1065 50.3534 13.6025 50.1201 13.1732C49.8867 12.7438 49.5694 12.4172 49.1681 12.1932C48.7761 11.9598 48.3421 11.8432 47.8661 11.8432C47.3901 11.8432 46.9561 11.9552 46.5641 12.1792C46.1721 12.4032 45.8594 12.7298 45.6261 13.1592C45.3927 13.5885 45.2761 14.0925 45.2761 14.6712C45.2761 15.2592 45.3927 15.7725 45.6261 16.2112C45.8594 16.6405 46.1721 16.9718 46.5641 17.2052C46.9561 17.4292 47.3901 17.5412 47.8661 17.5412C48.3421 17.5412 48.7761 17.4292 49.1681 17.2052C49.5694 16.9718 49.8867 16.6405 50.1201 16.2112C50.3534 15.7725 50.4701 15.2638 50.4701 14.6852ZM55.465 11.9132V16.4352C55.465 16.8085 55.5443 17.0745 55.703 17.2332C55.8617 17.3825 56.137 17.4572 56.529 17.4572H57.467V18.5352H56.319C55.6097 18.5352 55.0777 18.3718 54.723 18.0452C54.3683 17.7185 54.191 17.1818 54.191 16.4352V11.9132H53.197V10.8632H54.191V8.93116H55.465V10.8632H57.467V11.9132H55.465ZM66.0106 14.4052C66.0106 14.6478 65.9966 14.9045 65.9686 15.1752H59.8366C59.8833 15.9312 60.14 16.5238 60.6066 16.9532C61.0826 17.3732 61.6566 17.5832 62.3286 17.5832C62.8793 17.5832 63.3366 17.4572 63.7006 17.2052C64.074 16.9438 64.3353 16.5985 64.4846 16.1692H65.8566C65.6513 16.9065 65.2406 17.5085 64.6246 17.9752C64.0086 18.4325 63.2433 18.6612 62.3286 18.6612C61.6006 18.6612 60.9473 18.4978 60.3686 18.1712C59.7993 17.8445 59.3513 17.3825 59.0246 16.7852C58.698 16.1785 58.5346 15.4785 58.5346 14.6852C58.5346 13.8918 58.6933 13.1965 59.0106 12.5992C59.328 12.0018 59.7713 11.5445 60.3406 11.2272C60.9193 10.9005 61.582 10.7372 62.3286 10.7372C63.0566 10.7372 63.7006 10.8958 64.2606 11.2132C64.8206 11.5305 65.25 11.9692 65.5486 12.5292C65.8566 13.0798 66.0106 13.7052 66.0106 14.4052ZM64.6946 14.1392C64.6946 13.6538 64.5873 13.2385 64.3726 12.8932C64.158 12.5385 63.864 12.2725 63.4906 12.0952C63.1266 11.9085 62.7206 11.8152 62.2726 11.8152C61.6286 11.8152 61.078 12.0205 60.6206 12.4312C60.1726 12.8418 59.916 13.4112 59.8506 14.1392H64.6946Z" fill="#8A8A8A"/>
</svg>
