<svg width="45" height="20" viewBox="0 0 45 20" fill="none" xmlns="http://www.w3.org/2000/svg">
<path d="M9 18H2C1.45 18 0.979002 17.804 0.587002 17.412C0.195002 17.02 -0.000664969 16.5493 1.69779e-06 16V5H2V16H9V18ZM5.5 4C4.95 4 4.479 3.804 4.087 3.412C3.695 3.02 3.49934 2.54934 3.5 2C3.5 1.45 3.696 0.979002 4.088 0.587002C4.48 0.195002 4.95067 -0.000664969 5.5 1.69779e-06C6.05 1.69779e-06 6.521 0.196002 6.913 0.588002C7.305 0.980002 7.50067 1.45067 7.5 2C7.5 2.55 7.304 3.021 6.912 3.413C6.52 3.805 6.04934 4.00067 5.5 4ZM10 20V15H5C4.45 15 3.979 14.804 3.587 14.412C3.195 14.02 2.99934 13.5493 3 13V7.5C3 6.8 3.24167 6.20833 3.725 5.725C4.20834 5.24167 4.8 5 5.5 5C6.2 5 6.79167 5.24167 7.275 5.725C7.75833 6.20833 8 6.8 8 7.5V12H10C10.55 12 11.021 12.196 11.413 12.588C11.805 12.98 12.0007 13.4507 12 14V20H10Z" fill="black" fill-opacity="0.6"/>
<path d="M35.084 5.242V6.278H32.424V15H31.15V6.278H28.476V5.242H35.084ZM39.9982 15.126C39.2796 15.126 38.6262 14.9627 38.0382 14.636C37.4596 14.3093 37.0022 13.8473 36.6662 13.25C36.3396 12.6433 36.1762 11.9433 36.1762 11.15C36.1762 10.366 36.3442 9.67533 36.6802 9.078C37.0256 8.47133 37.4922 8.00933 38.0802 7.692C38.6682 7.36533 39.3262 7.202 40.0542 7.202C40.7822 7.202 41.4402 7.36533 42.0282 7.692C42.6162 8.00933 43.0782 8.46667 43.4142 9.064C43.7596 9.66133 43.9322 10.3567 43.9322 11.15C43.9322 11.9433 43.7549 12.6433 43.4002 13.25C43.0549 13.8473 42.5836 14.3093 41.9862 14.636C41.3889 14.9627 40.7262 15.126 39.9982 15.126ZM39.9982 14.006C40.4556 14.006 40.8849 13.8987 41.2862 13.684C41.6876 13.4693 42.0096 13.1473 42.2522 12.718C42.5042 12.2887 42.6302 11.766 42.6302 11.15C42.6302 10.534 42.5089 10.0113 42.2662 9.582C42.0236 9.15267 41.7062 8.83533 41.3142 8.63C40.9222 8.41533 40.4976 8.308 40.0402 8.308C39.5736 8.308 39.1442 8.41533 38.7522 8.63C38.3696 8.83533 38.0616 9.15267 37.8282 9.582C37.5949 10.0113 37.4782 10.534 37.4782 11.15C37.4782 11.7753 37.5902 12.3027 37.8142 12.732C38.0476 13.1613 38.3556 13.4833 38.7382 13.698C39.1209 13.9033 39.5409 14.006 39.9982 14.006Z" fill="#8A8A8A"/>
</svg>
