<svg width="71" height="24" viewBox="0 0 71 24" fill="none" xmlns="http://www.w3.org/2000/svg">
<path d="M41.594 8.242V9.278H37.352V12.568H40.796V13.604H37.352V18H36.078V8.242H41.594ZM44.4067 11.574C44.6307 11.1353 44.948 10.7947 45.3587 10.552C45.7787 10.3093 46.2874 10.188 46.8847 10.188V11.504H46.5487C45.1207 11.504 44.4067 12.2787 44.4067 13.828V18H43.1327V10.328H44.4067V11.574ZM51.7013 18.126C50.9827 18.126 50.3293 17.9627 49.7413 17.636C49.1627 17.3093 48.7053 16.8473 48.3693 16.25C48.0427 15.6433 47.8793 14.9433 47.8793 14.15C47.8793 13.366 48.0473 12.6753 48.3833 12.078C48.7287 11.4713 49.1953 11.0093 49.7833 10.692C50.3713 10.3653 51.0293 10.202 51.7573 10.202C52.4853 10.202 53.1433 10.3653 53.7313 10.692C54.3193 11.0093 54.7813 11.4667 55.1173 12.064C55.4627 12.6613 55.6353 13.3567 55.6353 14.15C55.6353 14.9433 55.458 15.6433 55.1033 16.25C54.758 16.8473 54.2867 17.3093 53.6893 17.636C53.092 17.9627 52.4293 18.126 51.7013 18.126ZM51.7013 17.006C52.1587 17.006 52.588 16.8987 52.9893 16.684C53.3907 16.4693 53.7127 16.1473 53.9553 15.718C54.2073 15.2887 54.3333 14.766 54.3333 14.15C54.3333 13.534 54.212 13.0113 53.9693 12.582C53.7267 12.1527 53.4093 11.8353 53.0173 11.63C52.6253 11.4153 52.2007 11.308 51.7433 11.308C51.2767 11.308 50.8473 11.4153 50.4553 11.63C50.0727 11.8353 49.7647 12.1527 49.5313 12.582C49.298 13.0113 49.1813 13.534 49.1813 14.15C49.1813 14.7753 49.2933 15.3027 49.5173 15.732C49.7507 16.1613 50.0587 16.4833 50.4413 16.698C50.824 16.9033 51.244 17.006 51.7013 17.006ZM66.5364 10.188C67.1338 10.188 67.6658 10.314 68.1324 10.566C68.5991 10.8087 68.9678 11.1773 69.2384 11.672C69.5091 12.1667 69.6444 12.7687 69.6444 13.478V18H68.3844V13.66C68.3844 12.8947 68.1931 12.3113 67.8104 11.91C67.4371 11.4993 66.9284 11.294 66.2844 11.294C65.6218 11.294 65.0944 11.5087 64.7024 11.938C64.3104 12.358 64.1144 12.9693 64.1144 13.772V18H62.8544V13.66C62.8544 12.8947 62.6631 12.3113 62.2804 11.91C61.9071 11.4993 61.3984 11.294 60.7544 11.294C60.0918 11.294 59.5644 11.5087 59.1724 11.938C58.7804 12.358 58.5844 12.9693 58.5844 13.772V18H57.3104V10.328H58.5844V11.434C58.8364 11.0327 59.1724 10.7247 59.5924 10.51C60.0218 10.2953 60.4931 10.188 61.0064 10.188C61.6504 10.188 62.2198 10.3327 62.7144 10.622C63.2091 10.9113 63.5778 11.336 63.8204 11.896C64.0351 11.3547 64.3898 10.9347 64.8844 10.636C65.3791 10.3373 65.9298 10.188 66.5364 10.188Z" fill="#8A8A8A"/>
<path d="M5 21V19H23V21H5ZM6.85 16L4 11.15L5.55 10.85L7.3 12.4L12.1 11.1L8.05 4.25002L10 3.65002L16.85 9.80002L21.85 8.45002C22.3833 8.30002 22.8667 8.40002 23.3 8.75002C23.7333 9.10002 23.95 9.56669 23.95 10.15C23.95 10.5167 23.8377 10.8417 23.613 11.125C23.3877 11.4084 23.1 11.6 22.75 11.7L6.85 16Z" fill="#8A8A8A"/>
</svg>
