<svg width="51" height="24" viewBox="0 0 51 24" fill="none" xmlns="http://www.w3.org/2000/svg">
<path d="M41.084 8.242V9.278H38.424V18H37.15V9.278H34.476V8.242H41.084ZM45.9982 18.126C45.2796 18.126 44.6262 17.9627 44.0382 17.636C43.4596 17.3093 43.0022 16.8473 42.6662 16.25C42.3396 15.6433 42.1762 14.9433 42.1762 14.15C42.1762 13.366 42.3442 12.6753 42.6802 12.078C43.0256 11.4713 43.4922 11.0093 44.0802 10.692C44.6682 10.3653 45.3262 10.202 46.0542 10.202C46.7822 10.202 47.4402 10.3653 48.0282 10.692C48.6162 11.0093 49.0782 11.4667 49.4142 12.064C49.7596 12.6613 49.9322 13.3567 49.9322 14.15C49.9322 14.9433 49.7549 15.6433 49.4002 16.25C49.0549 16.8473 48.5836 17.3093 47.9862 17.636C47.3889 17.9627 46.7262 18.126 45.9982 18.126ZM45.9982 17.006C46.4556 17.006 46.8849 16.8987 47.2862 16.684C47.6876 16.4693 48.0096 16.1473 48.2522 15.718C48.5042 15.2887 48.6302 14.766 48.6302 14.15C48.6302 13.534 48.5089 13.0113 48.2662 12.582C48.0236 12.1527 47.7062 11.8353 47.3142 11.63C46.9222 11.4153 46.4976 11.308 46.0402 11.308C45.5736 11.308 45.1442 11.4153 44.7522 11.63C44.3696 11.8353 44.0616 12.1527 43.8282 12.582C43.5949 13.0113 43.4782 13.534 43.4782 14.15C43.4782 14.7753 43.5902 15.3027 43.8142 15.732C44.0476 16.1613 44.3556 16.4833 44.7382 16.698C45.1209 16.9033 45.5409 17.006 45.9982 17.006Z" fill="#8A8A8A"/>
<path d="M5 21V19H23V21H5ZM6.85 16L4 11.15L5.55 10.85L7.3 12.4L12.1 11.1L8.05 4.25002L10 3.65002L16.85 9.80002L21.85 8.45002C22.3833 8.30002 22.8667 8.40002 23.3 8.75002C23.7333 9.10002 23.95 9.56669 23.95 10.15C23.95 10.5167 23.8377 10.8417 23.613 11.125C23.3877 11.4084 23.1 11.6 22.75 11.7L6.85 16Z" fill="#8A8A8A"/>
</svg>
